<svg width="256" height="256" viewBox="0 0 256 256" xmlns="http://www.w3.org/2000/svg" fill="none">
  <defs>
    <linearGradient id="ib_bg_px" x1="18" y1="18" x2="238" y2="238" gradientUnits="userSpaceOnUse">
      <stop offset="0" stop-color="#7dd3fc"/>
      <stop offset="1" stop-color="#38bdf8"/>
    </linearGradient>
  </defs>
  <rect x="12" y="12" width="232" height="232" rx="52" fill="#bae6fd"/>
  <rect x="12" y="12" width="232" height="232" rx="52" stroke="url(#ib_bg_px)" stroke-width="4" stroke-opacity="0.65"/>

  <g shape-rendering="crispEdges">
    <rect x="70" y="62" width="116" height="10" fill="#334155"/>
    <rect x="58" y="74" width="12" height="56" fill="#475569"/>
    <rect x="186" y="74" width="12" height="56" fill="#475569"/>
    <rect x="60" y="86" width="8" height="32" fill="#64748b"/>
    <rect x="188" y="86" width="8" height="32" fill="#64748b"/>

    <rect x="86" y="74" width="24" height="24" fill="#78350f"/>
    <rect x="146" y="74" width="24" height="24" fill="#78350f"/>
    <rect x="92" y="80" width="12" height="12" fill="#d97706"/>
    <rect x="152" y="80" width="12" height="12" fill="#d97706"/>

    <rect x="76" y="86" width="104" height="96" fill="#92400e"/>
    <rect x="90" y="102" width="76" height="70" fill="#b45309"/>
    <rect x="104" y="118" width="48" height="44" fill="#f59e0b"/>

    <rect x="104" y="112" width="10" height="10" fill="#0f172a"/>
    <rect x="142" y="112" width="10" height="10" fill="#0f172a"/>
    <rect x="108" y="116" width="4" height="4" fill="#e2e8f0"/>
    <rect x="146" y="116" width="4" height="4" fill="#e2e8f0"/>

    <rect x="123" y="132" width="10" height="10" fill="#1e293b"/>
    <rect x="114" y="148" width="28" height="4" fill="#1e293b"/>

    <rect x="92" y="126" width="8" height="8" fill="#fb7185" fill-opacity="0.65"/>
    <rect x="156" y="126" width="8" height="8" fill="#fb7185" fill-opacity="0.65"/>

    <rect x="178" y="40" width="6" height="22" fill="#0284c7"/>
    <rect x="178" y="58" width="14" height="8" fill="#0284c7"/>
    <rect x="198" y="28" width="6" height="18" fill="#0284c7"/>
    <rect x="198" y="42" width="12" height="8" fill="#0284c7"/>
  </g>
</svg>
