<svg width="256" height="256" viewBox="0 0 256 256" xmlns="http://www.w3.org/2000/svg" fill="none">
  <defs>
    <linearGradient id="ib_bg_px" x1="18" y1="18" x2="238" y2="238" gradientUnits="userSpaceOnUse">
      <stop offset="0" stop-color="#22d3ee"/>
      <stop offset="1" stop-color="#0ea5e9"/>
    </linearGradient>
  </defs>
  <rect x="12" y="12" width="232" height="232" rx="52" fill="#020617"/>
  <rect x="12" y="12" width="232" height="232" rx="52" stroke="url(#ib_bg_px)" stroke-width="4" stroke-opacity="0.6"/>

  <g shape-rendering="crispEdges">
    <rect x="72" y="76" width="112" height="8" fill="#334155"/>
    <rect x="64" y="84" width="8" height="40" fill="#475569"/>
    <rect x="184" y="84" width="8" height="40" fill="#475569"/>
    <rect x="64" y="116" width="8" height="8" fill="#64748b"/>
    <rect x="184" y="116" width="8" height="8" fill="#64748b"/>

    <rect x="88" y="84" width="16" height="16" fill="#78350f"/>
    <rect x="152" y="84" width="16" height="16" fill="#78350f"/>
    <rect x="92" y="88" width="8" height="8" fill="#d97706"/>
    <rect x="156" y="88" width="8" height="8" fill="#d97706"/>

    <rect x="80" y="92" width="96" height="72" fill="#92400e"/>
    <rect x="96" y="108" width="64" height="52" fill="#b45309"/>
    <rect x="108" y="120" width="40" height="32" fill="#f59e0b"/>

    <rect x="108" y="116" width="8" height="8" fill="#0f172a"/>
    <rect x="140" y="116" width="8" height="8" fill="#0f172a"/>
    <rect x="112" y="120" width="4" height="4" fill="#e2e8f0"/>
    <rect x="144" y="120" width="4" height="4" fill="#e2e8f0"/>

    <rect x="124" y="132" width="8" height="8" fill="#1e293b"/>
    <rect x="116" y="144" width="24" height="4" fill="#1e293b"/>

    <rect x="96" y="128" width="8" height="8" fill="#fb7185" fill-opacity="0.65"/>
    <rect x="152" y="128" width="8" height="8" fill="#fb7185" fill-opacity="0.65"/>

    <rect x="100" y="160" width="16" height="20" fill="#78350f"/>
    <rect x="140" y="160" width="16" height="20" fill="#78350f"/>
    <rect x="96" y="176" width="24" height="8" fill="#d97706"/>
    <rect x="136" y="176" width="24" height="8" fill="#d97706"/>

    <rect x="80" y="180" width="96" height="12" rx="6" fill="#6b7280" fill-opacity="0.9"/>
  </g>
</svg>
