<svg width="256" height="256" viewBox="0 0 256 256" xmlns="http://www.w3.org/2000/svg" fill="none">
  <defs>
    <linearGradient id="ib_bg_px" x1="18" y1="18" x2="238" y2="238" gradientUnits="userSpaceOnUse">
      <stop offset="0" stop-color="#7dd3fc"/>
      <stop offset="1" stop-color="#38bdf8"/>
    </linearGradient>
  </defs>
  <rect x="12" y="12" width="232" height="232" rx="52" fill="#bae6fd"/>
  <rect x="12" y="12" width="232" height="232" rx="52" stroke="url(#ib_bg_px)" stroke-width="4" stroke-opacity="0.65"/>

  <g shape-rendering="crispEdges">
    <rect x="182" y="38" width="8" height="28" fill="#0284c7"/>
    <rect x="182" y="58" width="18" height="10" fill="#0284c7"/>
    <rect x="204" y="24" width="8" height="24" fill="#0284c7"/>
    <rect x="204" y="40" width="16" height="10" fill="#0284c7"/>

    <rect x="60" y="58" width="136" height="12" fill="#334155"/>
    <rect x="48" y="72" width="12" height="60" fill="#475569"/>
    <rect x="196" y="72" width="12" height="60" fill="#475569"/>
    <rect x="50" y="82" width="8" height="40" fill="#64748b"/>
    <rect x="198" y="82" width="8" height="40" fill="#64748b"/>

    <rect x="82" y="70" width="26" height="26" fill="#78350f"/>
    <rect x="148" y="70" width="26" height="26" fill="#78350f"/>
    <rect x="88" y="76" width="12" height="12" fill="#d97706"/>
    <rect x="154" y="76" width="12" height="12" fill="#d97706"/>

    <rect x="68" y="84" width="120" height="116" fill="#92400e"/>
    <rect x="84" y="104" width="88" height="84" fill="#b45309"/>
    <rect x="100" y="122" width="56" height="54" fill="#f59e0b"/>

    <rect x="98" y="114" width="12" height="12" fill="#0f172a"/>
    <rect x="146" y="114" width="12" height="12" fill="#0f172a"/>
    <rect x="102" y="118" width="4" height="4" fill="#e2e8f0"/>
    <rect x="150" y="118" width="4" height="4" fill="#e2e8f0"/>

    <rect x="123" y="138" width="10" height="10" fill="#1e293b"/>
    <rect x="112" y="154" width="32" height="4" fill="#1e293b"/>

    <rect x="90" y="130" width="8" height="8" fill="#fb7185" fill-opacity="0.65"/>
    <rect x="158" y="130" width="8" height="8" fill="#fb7185" fill-opacity="0.65"/>
  </g>
</svg>
